<?xml version="1.0" encoding="utf-8"?>
<!-- Generator: Adobe Illustrator 26.0.1, SVG Export Plug-In . SVG Version: 6.00 Build 0)  -->
<svg version="1.1" id="Layer_1" xmlns="http://www.w3.org/2000/svg" xmlns:xlink="http://www.w3.org/1999/xlink" x="0px" y="0px"
	 viewBox="0 0 480.31 93.8" style="enable-background:new 0 0 480.31 93.8;" xml:space="preserve">
<style type="text/css">
	.st0{fill:#0B3254;}
	.st1{clip-path:url(#SVGID_00000063608041030998093860000000161470433414081212_);fill:#0B3254;}
	.st2{clip-path:url(#SVGID_00000063608041030998093860000000161470433414081212_);fill:#6BA2B8;}
</style>
<polygon class="st0" points="371.59,61.48 368.34,61.48 352.15,23.75 360.01,23.75 369.99,47.04 380.15,23.75 388.02,23.75 "/>
<g>
	<defs>
		<rect id="SVGID_1_" width="480.31" height="93.8"/>
	</defs>
	<clipPath id="SVGID_00000072246745918374576940000000215657048332229774_">
		<use xlink:href="#SVGID_1_"  style="overflow:visible;"/>
	</clipPath>
	<path style="clip-path:url(#SVGID_00000072246745918374576940000000215657048332229774_);fill:#0B3254;" d="M181.55,66.49
		c-8.85,0-15.98-3.08-21.18-9.15c-4.01-4.7-6.05-10.2-6.05-16.36c0-4.58,1.17-8.9,3.47-12.84c2.3-3.94,5.5-7.08,9.52-9.31
		c3.99-2.22,8.56-3.34,13.57-3.34c4.04,0,7.91,0.74,11.48,2.21c3.56,1.46,7.07,3.81,10.42,6.99l1.36,1.3l-5,5.43l-1.41-1.39
		c-2.47-2.43-5.21-4.3-8.14-5.55c-6.55-2.78-12.7-2.36-18.26,0.66c-3.06,1.66-5.45,3.93-7.12,6.76c-1.69,2.86-2.51,5.8-2.51,8.98
		c0,3.22,0.88,6.33,2.61,9.24c1.73,2.92,4.16,5.24,7.23,6.92c3.09,1.68,6.53,2.53,10.23,2.53c4.49,0,8.16-1.21,11.23-3.71
		c2.83-2.3,4.53-5.17,5.21-8.74h-15.26l-0.14-7.09h23.23l-0.01,1.92c-0.04,7.43-2.31,13.44-6.74,17.87
		C194.85,64.24,188.89,66.49,181.55,66.49"/>
	<path style="clip-path:url(#SVGID_00000072246745918374576940000000215657048332229774_);fill:#0B3254;" d="M243.47,60.83h-8.97
		l-12.01-15.51h-2.86v15.51h-7.17V23.6h12.4c3.87,0,6.48,0.17,7.97,0.51c2.4,0.55,4.37,1.75,5.87,3.56
		c1.53,1.85,2.31,4.12,2.31,6.74c0,2.17-0.53,4.12-1.57,5.8c-1.06,1.7-2.57,3-4.51,3.87c-1.04,0.46-2.25,0.79-3.66,0.99
		L243.47,60.83z M219.63,38.23l7.68,0.04c2.45,0,3.66-0.27,4.24-0.5c0.68-0.28,1.21-0.7,1.59-1.29c0.4-0.62,0.59-1.31,0.59-2.09
		c0-0.74-0.2-1.4-0.59-2.01c-0.39-0.58-0.88-0.99-1.5-1.23c-0.43-0.17-1.53-0.46-4.2-0.46h-7.81V38.23z"/>
	<path style="clip-path:url(#SVGID_00000072246745918374576940000000215657048332229774_);fill:#0B3254;" d="M280.52,60.83h-7.82
		l-5.25-10.99h-11.97l-5.2,10.99h-7.96l17.59-37.23h3.25L280.52,60.83z M256.97,43.91h9.08l-4.53-9.61L256.97,43.91z"/>
	<polygon style="clip-path:url(#SVGID_00000072246745918374576940000000215657048332229774_);fill:#0B3254;" points="312,60.83 
		308.47,60.83 289.21,38.73 289.21,60.83 281.93,60.83 281.93,23.6 285.44,23.6 304.88,45.99 304.88,23.6 312,23.6 	"/>
	<path style="clip-path:url(#SVGID_00000072246745918374576940000000215657048332229774_);fill:#0B3254;" d="M332.68,60.82h-12.54
		V23.6h8.83c5.25,0,9.02,0.43,11.52,1.32c3.63,1.27,6.51,3.51,8.56,6.66c2.02,3.1,3.05,6.81,3.05,11.05c0,3.67-0.82,6.96-2.43,9.78
		c-1.62,2.86-3.77,5-6.4,6.38C340.67,60.16,337.2,60.82,332.68,60.82 M327.16,53.84h1.94c5.48,0,7.93-0.42,9.02-0.77
		c2.11-0.68,3.72-1.88,4.93-3.66c1.23-1.82,1.83-4.02,1.83-6.72c0-2.81-0.67-5.23-2.01-7.17c-1.32-1.93-3.12-3.22-5.49-3.94
		c-1.9-0.58-5.19-0.87-9.78-0.87h-0.45V53.84z"/>
	
		<rect x="391.4" y="23.6" style="clip-path:url(#SVGID_00000072246745918374576940000000215657048332229774_);fill:#0B3254;" width="7.16" height="37.23"/>
	<polygon style="clip-path:url(#SVGID_00000072246745918374576940000000215657048332229774_);fill:#0B3254;" points="429.57,60.83 
		406.74,60.83 406.74,23.6 429.71,23.6 429.71,30.7 413.9,30.7 413.9,37.34 429.57,37.34 429.57,44.43 413.9,44.43 413.9,53.73 
		429.57,53.73 	"/>
	<polygon style="clip-path:url(#SVGID_00000072246745918374576940000000215657048332229774_);fill:#0B3254;" points="469.62,60.83 
		465.48,60.83 456.85,38.84 448.06,60.83 443.8,60.83 434.2,23.6 441.55,23.6 447.23,43.64 455.2,23.6 458.49,23.6 466.38,43.64 
		472.16,23.6 480.31,23.6 	"/>
	<polygon style="clip-path:url(#SVGID_00000072246745918374576940000000215657048332229774_);fill:#6BA2B8;" points="228.09,93.3 
		225.11,93.3 223.75,79.03 216.72,93.3 215.6,93.3 208.39,78.87 207.13,93.3 204.19,93.3 206.45,72.1 208.25,72.1 216.17,88.07 
		224,72.1 225.8,72.1 	"/>
	<polygon style="clip-path:url(#SVGID_00000072246745918374576940000000215657048332229774_);fill:#6BA2B8;" points="245.37,93.3 
		232.89,93.3 232.89,72.1 245.45,72.1 245.45,75.06 235.89,75.06 235.89,80.42 245.37,80.42 245.37,83.38 235.89,83.38 
		235.89,90.34 245.37,90.34 	"/>
	<path style="clip-path:url(#SVGID_00000072246745918374576940000000215657048332229774_);fill:#6BA2B8;" d="M257.05,93.3h-6.92
		V72.1h4.68c3.07,0,5.33,0.25,6.75,0.76c2.06,0.72,3.69,1.99,4.84,3.77c1.15,1.77,1.73,3.9,1.73,6.33c0,2.1-0.46,3.98-1.38,5.58
		c-0.91,1.61-2.12,2.83-3.61,3.6C261.68,92.91,259.63,93.3,257.05,93.3 M253.03,90.4h1.85c2.74,0,4.64-0.16,5.67-0.5
		c1.41-0.45,2.52-1.28,3.33-2.47c0.81-1.19,1.22-2.68,1.22-4.44c0-1.85-0.44-3.44-1.33-4.72c-0.88-1.3-2.09-2.17-3.68-2.65
		c-1.2-0.37-3.26-0.55-6.11-0.55h-0.95V90.4z"/>
	
		<rect x="272.91" y="72.1" style="clip-path:url(#SVGID_00000072246745918374576940000000215657048332229774_);fill:#6BA2B8;" width="2.99" height="21.2"/>
	<path style="clip-path:url(#SVGID_00000072246745918374576940000000215657048332229774_);fill:#6BA2B8;" d="M291.68,93.8
		c-3.66,0-6.6-1.24-8.74-3.7c-1.78-2.06-2.68-4.58-2.68-7.52c0-3.09,1.1-5.72,3.26-7.82c2.16-2.1,4.89-3.17,8.14-3.17
		c1.94,0,3.74,0.4,5.33,1.18c1.59,0.77,2.9,1.88,3.92,3.29l0.28,0.38l-2.36,1.81l-0.3-0.39c-0.82-1.08-1.83-1.91-2.99-2.46
		c-1.18-0.57-2.44-0.84-3.85-0.84c-1.53,0-2.93,0.36-4.24,1.1c-1.28,0.72-2.3,1.7-3.01,2.94c-0.71,1.24-1.07,2.64-1.07,4.16
		c0,2.35,0.78,4.25,2.39,5.82c1.61,1.57,3.59,2.33,6.05,2.33c2.67,0,4.94-1.06,6.74-3.16l0.3-0.35l2.36,1.79l-0.31,0.39
		c-1.05,1.34-2.38,2.39-3.95,3.12C295.39,93.43,293.62,93.8,291.68,93.8"/>
	<path style="clip-path:url(#SVGID_00000072246745918374576940000000215657048332229774_);fill:#6BA2B8;" d="M323.67,93.3h-3.26
		l-3.17-6.65h-8.1l-3.15,6.65h-3.34l10.02-21.2h1.12L323.67,93.3z M310.53,83.71h5.36l-2.67-5.68L310.53,83.71z"/>
	<polygon style="clip-path:url(#SVGID_00000072246745918374576940000000215657048332229774_);fill:#6BA2B8;" points="339.93,93.3 
		326.61,93.3 326.61,72.1 329.61,72.1 329.61,90.37 339.93,90.37 	"/>
	<path style="clip-path:url(#SVGID_00000072246745918374576940000000215657048332229774_);fill:#6BA2B8;" d="M364,93.8
		c-3.67,0-6.61-1.24-8.75-3.69c-1.78-2.07-2.68-4.6-2.68-7.53c0-3.09,1.1-5.72,3.26-7.82c2.16-2.1,4.9-3.17,8.13-3.17
		c1.95,0,3.74,0.4,5.33,1.18c1.58,0.77,2.9,1.88,3.92,3.29l0.28,0.38l-2.36,1.81l-0.29-0.39c-0.83-1.08-1.84-1.91-3-2.46
		c-1.16-0.56-2.45-0.84-3.84-0.84c-1.54,0-2.93,0.36-4.25,1.1c-1.29,0.72-2.3,1.71-3.01,2.93c-0.71,1.24-1.08,2.63-1.08,4.16
		c0,2.35,0.78,4.25,2.39,5.82c1.58,1.55,3.62,2.33,6.05,2.33c2.71,0,4.91-1.03,6.74-3.16l0.3-0.35l2.36,1.79l-0.31,0.39
		c-1.06,1.34-2.39,2.39-3.95,3.12C367.7,93.43,365.93,93.8,364,93.8"/>
	<polygon style="clip-path:url(#SVGID_00000072246745918374576940000000215657048332229774_);fill:#6BA2B8;" points="390.84,93.3 
		378.35,93.3 378.35,72.1 390.92,72.1 390.92,75.06 381.35,75.06 381.35,80.42 390.84,80.42 390.84,83.38 381.35,83.38 
		381.35,90.34 390.84,90.34 	"/>
	<polygon style="clip-path:url(#SVGID_00000072246745918374576940000000215657048332229774_);fill:#6BA2B8;" points="412.19,93.3 
		411.03,93.3 398.39,78.8 398.39,93.3 395.33,93.3 395.33,72.1 396.48,72.1 409.22,86.78 409.22,72.1 412.19,72.1 	"/>
	<polygon style="clip-path:url(#SVGID_00000072246745918374576940000000215657048332229774_);fill:#6BA2B8;" points="427.15,93.3 
		424.11,93.3 424.11,75.06 415.27,75.06 415.27,72.1 435.99,72.1 435.99,75.06 427.15,75.06 	"/>
	<polygon style="clip-path:url(#SVGID_00000072246745918374576940000000215657048332229774_);fill:#6BA2B8;" points="451.07,93.3 
		438.6,93.3 438.6,72.1 451.17,72.1 451.17,75.06 441.6,75.06 441.6,80.42 451.07,80.42 451.07,83.38 441.6,83.38 441.6,90.34 
		451.07,90.34 	"/>
	<path style="clip-path:url(#SVGID_00000072246745918374576940000000215657048332229774_);fill:#6BA2B8;" d="M472.62,93.3h-3.73
		l-7.27-9.39h-3.19v9.39h-3V72.1h7.3c2.31,0,3.83,0.09,4.67,0.29c1.3,0.3,2.38,0.95,3.19,1.93c0.82,0.99,1.24,2.21,1.24,3.65
		c0,1.19-0.29,2.26-0.85,3.16c-0.56,0.91-1.38,1.61-2.44,2.08c-0.83,0.37-1.91,0.59-3.21,0.67L472.62,93.3z M458.42,80.96l5.78,0.03
		c1.27,0,2.22-0.12,2.81-0.35c0.55-0.22,0.97-0.56,1.28-1.04c0.32-0.49,0.47-1.02,0.47-1.63c0-0.58-0.15-1.11-0.47-1.57
		c-0.33-0.48-0.73-0.81-1.23-1.01c-0.53-0.21-1.46-0.32-2.8-0.32h-5.85V80.96z"/>
	<path style="clip-path:url(#SVGID_00000072246745918374576940000000215657048332229774_);fill:#6BA2B8;" d="M78.74,61.23
		l-4.43-4.57C43.8,58.86,9.79,75.09,0,84.03v4.38c13.54-10.06,49.69-23.08,74.28-23.94l4.44,3.94c15.25-0.25,30.63,1.75,44.48,4.25
		c0-1.89,0.01-3.71,0.01-5.6C111.76,64.12,93.98,61.81,78.74,61.23"/>
	<path style="clip-path:url(#SVGID_00000072246745918374576940000000215657048332229774_);fill:#6BA2B8;" d="M0.16,93.73
		c13.87-9.07,45.27-19.54,74.15-21.46l4.43,4.18c15.25,0.06,30.15,0.69,44.47,3.2v14.13L0.16,93.73z"/>
	<path style="clip-path:url(#SVGID_00000072246745918374576940000000215657048332229774_);fill:#6BA2B8;" d="M78.74,46.63
		l-4.43-4.92C38.81,44.89,6.05,67.71,0,74.5v4.25c6.53-6.31,37.48-27.11,74.28-29.46l4.44,4.7c15.25,0.54,33.04,3.27,44.48,6.41
		c0-1.89,0.01-3.31,0.01-5.2C111.87,51.57,93.98,48.01,78.74,46.63"/>
	<path style="clip-path:url(#SVGID_00000072246745918374576940000000215657048332229774_);fill:#6BA2B8;" d="M78.74,33.17l-4.43-6.2
		C38.81,30.75,5.99,57.15,0,65.04v4.43c6.36-7.11,38.95-32.49,74.28-34.86l4.44,5.52c15.31,1.34,32.8,5.52,44.48,9.28
		c0-1.8,0.01-3.29,0.01-5.09C111.64,40.05,93.98,35.29,78.74,33.17"/>
	<path style="clip-path:url(#SVGID_00000072246745918374576940000000215657048332229774_);fill:#6BA2B8;" d="M78.74,19.58
		l-4.43-6.44C38.81,17.51,5.08,47.16,0,56.22v4.14c5.92-8.61,38.95-36.7,74.28-39.66l4.44,5.73c15.25,2.11,32.68,7.86,44.48,12.17
		c0-1.8,0.01-2.82,0.01-4.62C112.57,29.13,93.98,22.42,78.74,19.58"/>
	<path style="clip-path:url(#SVGID_00000072246745918374576940000000215657048332229774_);fill:#6BA2B8;" d="M78.74,6.58L74.31,0
		C38.81,4.92,5.92,36.52,0,47.64v4.3C5.8,42.2,38.95,10.59,74.28,7.09l4.44,6.22c15.25,2.84,33.97,10.1,44.48,14.93
		c0-1.77,0.01-2.73,0.01-4.51C114.91,19.14,93.98,10.13,78.74,6.58"/>
</g>
</svg>
